<svg width="719" height="602" viewBox="0 0 719 602" fill="none" xmlns="http://www.w3.org/2000/svg">
<g clip-path="url(#clip0_12529:1588)">
<path d="M633.317 36.5525H0.993195C0.727808 36.5466 0.475282 36.437 0.289673 36.2473C0.104064 36.0575 0.00012207 35.8026 0.00012207 35.5371C0.00012207 35.2717 0.104064 35.0168 0.289673 34.827C0.475282 34.6372 0.727808 34.5277 0.993195 34.5218H633.317C633.582 34.5277 633.834 34.6372 634.02 34.827C634.206 35.0168 634.31 35.2717 634.31 35.5371C634.31 35.8026 634.206 36.0575 634.02 36.2473C633.834 36.437 633.582 36.5466 633.317 36.5525V36.5525Z" fill="#CACACA"/>
<path d="M600.688 70.836H24.748C21.5589 70.8407 18.5018 72.1097 16.2468 74.3647C13.9917 76.6198 12.7228 79.6769 12.718 82.866V84.806C12.7228 87.9951 13.9917 91.0522 16.2468 93.3072C18.5018 95.5622 21.5589 96.8312 24.748 96.836H600.688C603.877 96.8312 606.934 95.5622 609.189 93.3072C611.444 91.0522 612.713 87.9951 612.718 84.806V82.866C612.713 79.6769 611.444 76.6198 609.189 74.3647C606.934 72.1097 603.877 70.8407 600.688 70.836V70.836Z" fill="#F0F0F0"/>
<path d="M94.2534 88.6362H39.4305C38.2039 88.6344 37.0281 88.1458 36.1614 87.2778C35.2947 86.4098 34.8079 85.2333 34.8079 84.0067C34.8079 82.7801 35.2947 81.6036 36.1614 80.7356C37.0281 79.8676 38.2039 79.379 39.4305 79.3772H94.2534C100.224 79.2939 100.283 88.7202 94.2534 88.6362Z" fill="white"/>
<path d="M258.253 88.6362H203.431C202.204 88.6344 201.028 88.1458 200.161 87.2778C199.295 86.4098 198.808 85.2333 198.808 84.0067C198.808 82.7801 199.295 81.6036 200.161 80.7356C201.028 79.8676 202.204 79.379 203.431 79.3772H258.253C264.224 79.2939 264.283 88.7202 258.253 88.6362Z" fill="white"/>
<path d="M422.253 88.6362H367.431C366.204 88.6344 365.028 88.1458 364.161 87.2778C363.295 86.4098 362.808 85.2333 362.808 84.0067C362.808 82.7801 363.295 81.6036 364.161 80.7356C365.028 79.8676 366.204 79.379 367.431 79.3772H422.253C428.224 79.2939 428.283 88.7202 422.253 88.6362Z" fill="white"/>
<path d="M577.753 89.1362H522.931C521.703 89.1362 520.525 88.6484 519.657 87.7802C518.789 86.912 518.301 85.7345 518.301 84.5067C518.301 83.2789 518.789 82.1014 519.657 81.2332C520.525 80.365 521.703 79.8772 522.931 79.8772H577.753C583.724 79.7939 583.783 89.2202 577.753 89.1362Z" fill="#09587B"/>
<path d="M492.218 70.836H490.218V96.836H492.218V70.836Z" fill="white"/>
<path d="M262.114 363.896H55.2292C53.1348 363.894 51.127 363.061 49.646 361.58C48.1651 360.099 47.332 358.091 47.3296 355.997V332.232C47.332 330.138 48.1651 328.13 49.646 326.649C51.127 325.168 53.1348 324.335 55.2292 324.333H279.624C281.719 324.335 283.726 325.168 285.207 326.649C286.688 328.13 287.521 330.138 287.524 332.232V338.487C287.516 345.223 284.837 351.682 280.073 356.446C275.31 361.209 268.851 363.889 262.114 363.896V363.896Z" fill="white"/>
<path d="M190.751 342.663H96.2776C95.7372 342.663 95.219 342.449 94.8369 342.067C94.4549 341.685 94.2402 341.166 94.2402 340.626C94.2402 340.086 94.4549 339.568 94.8369 339.185C95.219 338.803 95.7372 338.589 96.2776 338.589H190.751C191.291 338.589 191.81 338.803 192.192 339.185C192.574 339.568 192.788 340.086 192.788 340.626C192.788 341.166 192.574 341.685 192.192 342.067C191.81 342.449 191.291 342.663 190.751 342.663V342.663Z" fill="#E6E6E6"/>
<path d="M238.575 350.996H96.2777C96.0098 350.997 95.7443 350.944 95.4966 350.842C95.2489 350.74 95.0238 350.59 94.8341 350.401C94.6445 350.212 94.494 349.987 94.3914 349.739C94.2887 349.492 94.2358 349.227 94.2358 348.959C94.2358 348.691 94.2887 348.426 94.3914 348.178C94.494 347.931 94.6445 347.706 94.8341 347.517C95.0238 347.327 95.2489 347.177 95.4966 347.075C95.7443 346.973 96.0098 346.921 96.2777 346.921H238.575C239.115 346.923 239.632 347.138 240.013 347.52C240.394 347.902 240.608 348.419 240.608 348.959C240.608 349.498 240.394 350.016 240.013 350.398C239.632 350.78 239.115 350.995 238.575 350.996V350.996Z" fill="#E6E6E6"/>
<path d="M303.811 439H32.1886C29.7525 438.996 27.417 437.731 25.6944 435.483C23.9719 433.235 23.0028 430.186 23 427.006V155.993C23.0028 152.813 23.9719 149.765 25.6945 147.517C27.4171 145.268 29.7526 144.004 32.1886 144H303.811C306.247 144.004 308.583 145.268 310.306 147.517C312.028 149.765 312.997 152.813 313 155.993V427.006C312.997 430.186 312.028 433.235 310.306 435.483C308.583 437.731 306.248 438.996 303.811 439ZM32.1886 146.646C30.29 146.649 28.4697 147.634 27.1271 149.387C25.7845 151.139 25.0292 153.515 25.027 155.993V427.006C25.0291 429.485 25.7843 431.861 27.1269 433.613C28.4695 435.366 30.2899 436.351 32.1886 436.354H303.811C305.71 436.351 307.531 435.366 308.873 433.613C310.216 431.861 310.971 429.485 310.973 427.006V155.993C310.971 153.515 310.216 151.139 308.873 149.386C307.53 147.634 305.71 146.648 303.811 146.646L32.1886 146.646Z" fill="#F0F0F0"/>
<path d="M25 399V429.627C25.003 431.581 25.8027 433.455 27.2238 434.837C28.6449 436.219 30.5715 436.997 32.5813 437H305.419C307.429 436.997 309.355 436.219 310.776 434.837C312.197 433.455 312.997 431.581 313 429.627V399H25Z" fill="#F0F0F0"/>
<path d="M545.364 587.788L532.974 587.787L527.079 539.998L545.366 539.999L545.364 587.788Z" fill="#A0616A"/>
<path d="M545.034 583.739L531.814 578.369L531.424 578.209L524.124 583.739C520.118 583.738 516.266 585.285 513.373 588.055C510.479 590.826 508.767 594.607 508.594 598.609C508.574 598.829 508.574 599.059 508.574 599.289V599.799H548.524V583.739H545.034Z" fill="#2F2E41"/>
<path d="M516.348 576.258L504.66 580.37L483.238 537.245L500.488 531.177L516.348 576.258Z" fill="#A0616A"/>
<path d="M514.693 572.548L500.44 571.87L500.019 571.849L494.968 579.488C491.189 580.817 488.069 583.554 486.259 587.128C484.449 590.702 484.089 594.837 485.254 598.67C485.308 598.884 485.385 599.101 485.461 599.318L485.63 599.799L523.316 586.539L517.985 571.39L514.693 572.548Z" fill="#2F2E41"/>
<path d="M549.742 381.73C561.077 381.29 547.036 471.62 547.036 471.62C547.036 471.62 551.143 550.925 550.272 555.087C549.402 559.249 550.163 570.473 550.163 570.473C547.942 566.431 525.03 569.482 525.03 569.482L521.914 489.106L506 424.706L483.938 467.874L505.084 534.135C505.084 534.135 513.647 542.059 512.736 545.19C511.826 548.322 489.395 555.383 485.274 555.543C481.152 555.703 483.013 550.471 482.813 545.319C482.613 540.166 463.217 492.414 456.395 476.166C449.573 459.919 454.877 437.009 458.359 420.362C461.842 403.714 480.163 372.473 480.163 372.473C502.904 346.823 538.407 382.169 549.742 381.73Z" fill="#2F2E41"/>
<path d="M411.605 308.732C412.226 309.918 413.099 310.954 414.163 311.766C415.228 312.578 416.458 313.147 417.766 313.432C419.074 313.718 420.429 313.713 421.735 313.419C423.041 313.124 424.266 312.547 425.325 311.727L452.583 329.511L452.5 312.598L426.628 298.303C425.134 296.616 423.072 295.535 420.834 295.266C418.595 294.997 416.336 295.559 414.485 296.844C412.633 298.13 411.317 300.05 410.786 302.241C410.255 304.432 410.547 306.741 411.605 308.732V308.732Z" fill="#A0616A"/>
<path d="M543.855 396.21C515.745 396.211 500.255 390.584 492.029 385.56C481.97 379.416 480.249 372.938 480.18 372.664L480.16 372.586L481.139 360.266L481.568 359.307C483.541 354.891 483.803 349.899 482.302 345.3L482.271 345.205L482.279 345.107L488.852 259.862L512.112 252.243L518.878 245.444L549.006 245.007L553.203 253.518L576.954 262.459L565.286 331.915L559.692 341.557L561.943 352.06L561.927 352.155L554.589 395.955L554.185 395.972C550.566 396.134 547.123 396.214 543.855 396.21Z" fill="#3F3D56"/>
<path d="M471.133 343.029L460.105 336.491L459.414 335.493C458.01 333.473 456.153 331.81 453.99 330.638C451.827 329.466 449.419 328.818 446.96 328.745L446.832 328.741L431.643 319.811L437.939 301.368L461.749 308.402L478.349 267.157C479.261 264.892 480.783 262.924 482.746 261.472C484.709 260.021 487.037 259.142 489.47 258.934C491.902 258.726 494.345 259.197 496.526 260.295C498.708 261.392 500.542 263.073 501.824 265.151C503.139 267.322 503.82 269.818 503.792 272.356V299.343L503.692 299.477L471.133 343.029Z" fill="#3F3D56"/>
<path d="M544.86 380.348C545.096 379.03 545.618 377.779 546.389 376.685C547.16 375.59 548.162 374.678 549.324 374.013C550.486 373.348 551.78 372.945 553.114 372.834C554.448 372.722 555.791 372.905 557.047 373.368L577.703 348.217L582.705 364.373L562.323 385.781C561.404 387.839 559.762 389.489 557.708 390.418C555.654 391.347 553.331 391.49 551.178 390.82C549.026 390.151 547.194 388.715 546.029 386.785C544.865 384.854 544.449 382.564 544.86 380.348V380.348Z" fill="#A0616A"/>
<path d="M575.744 377.169L562.028 363.452L570.76 342.177L583.413 324.899C569.929 318.334 559.808 302.784 552.474 289.911L552.391 289.766L554.218 275.462C554.645 272.117 555.985 268.954 558.091 266.319C559.923 264.029 562.276 262.21 564.954 261.015C567.633 259.82 570.559 259.283 573.487 259.451C576.415 259.618 579.26 260.484 581.785 261.976C584.31 263.469 586.441 265.544 588 268.028L612.592 322.697L612.315 323.11L592.534 356.829L587.136 360.33L575.744 377.169Z" fill="#3F3D56"/>
<path d="M555.573 216.333C554.669 222.924 551.185 228.887 545.886 232.912C540.588 236.936 533.909 238.693 527.316 237.795C520.723 236.898 514.756 233.421 510.726 228.127C506.696 222.833 504.932 216.155 505.822 209.562L505.871 209.205C506.911 202.7 510.467 196.864 515.771 192.956C521.075 189.049 527.703 187.383 534.224 188.318C540.746 189.253 546.638 192.715 550.631 197.955C554.623 203.196 556.395 209.796 555.565 216.332L555.573 216.333Z" fill="#A0616A"/>
<path d="M549.184 229.263C550.473 226.645 551.797 223.833 551.435 220.937C551.073 218.04 548.232 215.272 545.443 216.133C543.775 216.647 542.514 218.294 540.771 218.379C538.372 218.495 536.997 215.749 536.25 213.466L533.209 204.17C530.289 206.446 526.902 208.049 523.291 208.865C519.68 209.681 515.933 209.69 512.318 208.891C509.495 208.245 506.642 206.987 504.986 204.61C503.33 202.234 503.34 198.549 505.611 196.752C506.725 195.871 508.208 195.536 509.272 194.596C509.932 194.013 510.388 193.233 510.57 192.371C510.752 191.509 510.652 190.611 510.285 189.811C509.918 189.01 509.302 188.349 508.53 187.925C507.758 187.501 506.869 187.337 505.996 187.458L513.653 186.501L511.372 182.375C512.239 182.965 513.22 183.367 514.252 183.557C515.284 183.746 516.344 183.718 517.364 183.474C519.424 183.103 521.364 182.255 523.379 181.689C528.264 180.442 533.423 180.823 538.071 182.775C542.72 184.727 546.604 188.143 549.134 192.504C551.018 191.875 553.049 191.833 554.957 192.384C556.866 192.935 558.562 194.053 559.821 195.59C561.87 198.191 562.428 201.663 562.507 204.974C562.656 211.503 561.233 217.971 558.357 223.834C557.532 225.696 556.347 227.377 554.87 228.78C554.127 229.475 553.24 230 552.272 230.316C551.305 230.633 550.28 230.733 549.269 230.612" fill="#2F2E41"/>
<path d="M717.318 601.718H299.936C299.62 601.718 299.318 601.593 299.094 601.37C298.871 601.146 298.746 600.843 298.746 600.528C298.746 600.212 298.871 599.909 299.094 599.686C299.318 599.462 299.62 599.337 299.936 599.337H717.318C717.634 599.337 717.937 599.462 718.16 599.686C718.383 599.909 718.509 600.212 718.509 600.528C718.509 600.843 718.383 601.146 718.16 601.37C717.937 601.593 717.634 601.718 717.318 601.718V601.718Z" fill="#CACACA"/>
<path d="M256.785 294.564H49.8996C47.8053 294.561 45.7974 293.728 44.3164 292.247C42.8355 290.766 42.0024 288.758 42 286.664V262.9C42.0024 260.805 42.8355 258.797 44.3164 257.316C45.7974 255.835 47.8053 255.002 49.8996 255H274.295C276.389 255.002 278.397 255.835 279.878 257.316C281.359 258.797 282.192 260.805 282.194 262.9V269.154C282.187 275.891 279.507 282.349 274.744 287.113C269.98 291.876 263.521 294.556 256.785 294.564V294.564Z" fill="white"/>
<path d="M258.785 227.564H51.8996C49.8053 227.561 47.7974 226.728 46.3164 225.247C44.8355 223.766 44.0024 221.758 44 219.664V195.9C44.0024 193.805 44.8355 191.797 46.3164 190.316C47.7974 188.835 49.8053 188.002 51.8996 188H276.295C278.389 188.002 280.397 188.835 281.878 190.316C283.359 191.797 284.192 193.805 284.194 195.9V202.154C284.187 208.891 281.507 215.349 276.744 220.113C271.98 224.876 265.521 227.556 258.785 227.564V227.564Z" fill="white"/>
<path d="M171.062 273.087H76.5881C76.0478 273.087 75.5296 272.872 75.1475 272.49C74.7654 272.108 74.5508 271.59 74.5508 271.05C74.5508 270.509 74.7654 269.991 75.1475 269.609C75.5296 269.227 76.0478 269.013 76.5881 269.013H171.062C171.602 269.013 172.12 269.227 172.502 269.609C172.884 269.991 173.099 270.509 173.099 271.05C173.099 271.59 172.884 272.108 172.502 272.49C172.12 272.872 171.602 273.087 171.062 273.087V273.087Z" fill="#E6E6E6"/>
<path d="M218.885 281.42H76.588C76.3201 281.42 76.0546 281.368 75.8069 281.266C75.5592 281.164 75.3341 281.014 75.1444 280.825C74.9548 280.636 74.8043 280.411 74.7017 280.163C74.599 279.916 74.5461 279.65 74.5461 279.383C74.5461 279.115 74.599 278.849 74.7017 278.602C74.8043 278.354 74.9548 278.13 75.1444 277.94C75.3341 277.751 75.5592 277.601 75.8069 277.499C76.0546 277.397 76.3201 277.345 76.588 277.345H218.885C219.425 277.346 219.942 277.562 220.323 277.944C220.704 278.325 220.918 278.843 220.918 279.383C220.918 279.922 220.704 280.44 220.323 280.822C219.942 281.203 219.425 281.419 218.885 281.42V281.42Z" fill="#E6E6E6"/>
<path d="M171.062 209.087H76.5881C76.0478 209.087 75.5296 208.872 75.1475 208.49C74.7654 208.108 74.5508 207.59 74.5508 207.05C74.5508 206.509 74.7654 205.991 75.1475 205.609C75.5296 205.227 76.0478 205.013 76.5881 205.013H171.062C171.602 205.013 172.12 205.227 172.502 205.609C172.884 205.991 173.099 206.509 173.099 207.05C173.099 207.59 172.884 208.108 172.502 208.49C172.12 208.872 171.602 209.087 171.062 209.087V209.087Z" fill="#E6E6E6"/>
<path d="M218.885 217.42H76.588C76.3201 217.42 76.0546 217.368 75.8069 217.266C75.5592 217.164 75.3341 217.014 75.1444 216.825C74.9548 216.636 74.8043 216.411 74.7017 216.163C74.599 215.916 74.5461 215.65 74.5461 215.383C74.5461 215.115 74.599 214.849 74.7017 214.602C74.8043 214.354 74.9548 214.13 75.1444 213.94C75.3341 213.751 75.5592 213.601 75.8069 213.499C76.0546 213.397 76.3201 213.345 76.588 213.345H218.885C219.425 213.346 219.942 213.562 220.323 213.944C220.704 214.325 220.918 214.843 220.918 215.383C220.918 215.922 220.704 216.44 220.323 216.822C219.942 217.203 219.425 217.419 218.885 217.42V217.42Z" fill="#E6E6E6"/>
<path d="M136.059 190.254C136.469 196.101 138.191 201.78 141.098 206.87C147.226 217.631 157.733 225.422 169.05 230.053C183.189 235.839 198.95 236.017 213.955 234.727C227.892 233.529 241.687 230.751 255.675 230.179C266.493 229.832 277.321 230.091 288.11 230.952C309.042 232.438 329.886 235.195 350.597 238.536C356.206 239.43 361.803 240.391 367.388 241.418C367.916 241.464 368.438 241.561 368.948 241.707C369.049 241.749 369.212 241.716 369.305 241.775C369.474 241.881 368.623 241.506 369.139 241.932C369.857 242.686 370.498 243.51 371.051 244.393L378.7 254.236C380.893 257.059 382.929 260.488 385.764 262.713C387.763 264.257 390.174 265.175 392.694 265.351C395.214 265.526 397.729 264.952 399.923 263.7C402.215 262.252 404.042 260.176 405.188 257.719C406.947 254.492 409.046 251.463 411.449 248.682C420.549 238.066 433.196 231.536 443.774 222.604C448.898 218.455 453.271 213.456 456.702 207.826C459.63 202.731 461.45 197.077 462.044 191.231C463.311 179.36 459.668 167.254 453.541 157.155C446.877 146.305 437.303 137.542 425.907 131.861C413.105 125.339 398.939 122.162 384.739 120.579C369.662 118.898 354.411 118.903 339.261 119.073C322.258 119.262 305.287 120.01 288.346 121.316C271.382 122.629 254.485 124.495 237.654 126.915C221.505 129.237 205.158 131.657 189.35 135.765C175.386 139.395 161.46 145.067 151.032 155.346C141.76 164.485 135.311 176.992 136.059 190.254Z" fill="#09587B"/>
<path opacity="0.15" d="M204.401 166.892L384.905 164.382L379.571 173.923L199.129 176.467L204.401 166.892Z" fill="#FEFEFE"/>
<path opacity="0.15" d="M215.016 188.09L395.52 185.58L390.185 195.12L209.744 197.664L215.016 188.09Z" fill="#FEFEFE"/>
</g>
<defs>
<clipPath id="clip0_12529:1588">
<rect width="718.509" height="601.718" fill="white"/>
</clipPath>
</defs>
</svg>
